<svg id="Layer_1" data-name="Layer 1" xmlns="http://www.w3.org/2000/svg" viewBox="0 0 51.71 52.07"><defs><style>.cls-1{fill:none;stroke:#444;stroke-miterlimit:10;}.cls-2{fill:#444;}</style></defs><circle class="cls-1" cx="3.21" cy="48.86" r="2.71"/><polyline class="cls-1" points="9.5 48.86 48.5 48.86 48.5 10.86"/><polyline class="cls-1" points="3.5 41.86 3.5 3.64 41.5 3.64"/><circle class="cls-1" cx="48.5" cy="3.21" r="2.71"/><path class="cls-2" d="M296,304.05a4.32,4.32,0,0,0,1.36-1,3.86,3.86,0,0,0,.82-2.58,4.42,4.42,0,0,0-.81-2.68c-.91-1.22-2.44-1.84-4.61-1.87h-8.59v17.54h8a12.36,12.36,0,0,0,2.51-.24,4.9,4.9,0,0,0,2-.88,5.19,5.19,0,0,0,2-4.18,4.63,4.63,0,0,0-.69-2.57A4,4,0,0,0,296,304.05ZM287.73,299h3.87a6.84,6.84,0,0,1,2.1.28,1.57,1.57,0,0,1,1,1.62,1.66,1.66,0,0,1-.72,1.54,3.63,3.63,0,0,1-1.88.43h-4.33Zm6.12,11.14a4.19,4.19,0,0,1-1.8.31h-4.32v-4.67h4.38a4.45,4.45,0,0,1,1.78.29,1.87,1.87,0,0,1,1.13,1.88A2.2,2.2,0,0,1,293.85,310.1Z" transform="translate(-272.64 -278.55)"/><rect class="cls-2" x="29.94" y="18.19" width="7.62" height="2.18"/><path class="cls-2" d="M312.84,305.35a6.34,6.34,0,0,0-1-2.68,5.39,5.39,0,0,0-2.27-1.92,7.64,7.64,0,0,0-3.09-.61,6.42,6.42,0,0,0-4.7,1.8,7,7,0,0,0-1.81,5.17c0,2.4.66,4.13,2,5.2a7.25,7.25,0,0,0,4.64,1.59A6.43,6.43,0,0,0,311.5,312a4.27,4.27,0,0,0,1.28-2.34h-3.52a2.91,2.91,0,0,1-.7.89,3,3,0,0,1-1.91.59,3.51,3.51,0,0,1-1.9-.49,3.08,3.08,0,0,1-1.37-2.73H313A16.42,16.42,0,0,0,312.84,305.35Zm-9.38.34a3.52,3.52,0,0,1,.92-2,2.75,2.75,0,0,1,2.05-.74,3,3,0,0,1,2,.7,2.85,2.85,0,0,1,.92,2.05Z" transform="translate(-272.64 -278.55)"/></svg>