<svg id="Layer_1" data-name="Layer 1" xmlns="http://www.w3.org/2000/svg" viewBox="0 0 51.71 51.21"><defs><style>.cls-1{fill:#444;}.cls-2{fill:none;stroke:#444;stroke-miterlimit:10;}</style></defs><path class="cls-1" d="M362.52,80H351.21a7.85,7.85,0,0,0-7.85,7.84V99.17a7.85,7.85,0,0,0,7.85,7.84h11.31a7.85,7.85,0,0,0,7.84-7.84V87.85A7.85,7.85,0,0,0,362.52,80Zm5.74,19.16a5.74,5.74,0,0,1-5.74,5.73H351.21a5.74,5.74,0,0,1-5.74-5.73V87.85a5.74,5.74,0,0,1,5.74-5.73h11.31a5.74,5.74,0,0,1,5.74,5.73Z" transform="translate(-330.86 -67.58)"/><path class="cls-1" d="M356.86,86.23a7.28,7.28,0,1,0,7.28,7.28A7.29,7.29,0,0,0,356.86,86.23Zm0,12.45A5.17,5.17,0,1,1,362,93.51,5.17,5.17,0,0,1,356.86,98.68Z" transform="translate(-330.86 -67.58)"/><circle class="cls-1" cx="33.38" cy="18.55" r="1.05"/><circle class="cls-2" cx="3.21" cy="48" r="2.71"/><polyline class="cls-2" points="9.5 48.43 48.5 48.43 48.5 10.43"/><polyline class="cls-2" points="3.5 41.43 3.5 3.21 41.5 3.21"/><circle class="cls-2" cx="48.5" cy="3.21" r="2.71"/></svg>