<?xml version="1.0" encoding="utf-8"?>
<!-- Generator: Adobe Illustrator 24.3.0, SVG Export Plug-In . SVG Version: 6.00 Build 0)  -->
<svg version="1.1" xmlns="http://www.w3.org/2000/svg" xmlns:xlink="http://www.w3.org/1999/xlink" x="0px" y="0px"
	 viewBox="0 0 994.29 725.14" style="enable-background:new 0 0 994.29 725.14;" xml:space="preserve">
<style type="text/css">
	.st0{fill:#FFEDC0;}
	.st1{fill:none;stroke:#7555F5;stroke-miterlimit:10;}
	.st2{fill:#FFFFFF;}
	.st3{fill:#FFD364;}
	.st4{fill:#FFC200;}
	.st5{fill:#FFC522;}
</style>
<g id="Layer_6">
</g>
<g id="Layer_2">
	<rect class="st0" width="994.29" height="725.14"/>
	<g>
		<g>
			<polyline class="st1" points="484.12,50.24 500.33,58.24 516.54,50.24 532.75,58.24 548.96,50.24 565.18,58.24 581.38,50.24 
				597.6,58.24 613.81,50.24 630.03,58.24 646.25,50.24 			"/>
		</g>
		<g>
			<polyline class="st1" points="484.12,74.48 500.33,82.48 516.54,74.48 532.75,82.48 548.96,74.48 565.18,82.48 581.38,74.48 
				597.6,82.48 613.81,74.48 630.03,82.48 646.25,74.48 			"/>
		</g>
		<g>
			<polyline class="st1" points="484.12,101.97 500.33,109.97 516.54,101.97 532.75,109.97 548.96,101.97 565.18,109.97 
				581.38,101.97 597.6,109.97 613.81,101.97 630.03,109.97 646.25,101.97 			"/>
		</g>
		<g>
			<polyline class="st1" points="482.89,127.63 499.11,135.63 515.31,127.63 531.53,135.63 547.74,127.63 563.95,135.63 
				580.16,127.63 596.37,135.63 612.59,127.63 628.81,135.63 645.03,127.63 			"/>
		</g>
		<g>
			<polyline class="st1" points="484.12,152.85 500.33,160.85 516.54,152.85 532.75,160.85 548.96,152.85 565.18,160.85 
				581.38,152.85 597.6,160.85 613.81,152.85 630.03,160.85 646.25,152.85 			"/>
		</g>
	</g>
	<g>
		<circle class="st1" cx="439.02" cy="543.08" r="4.43"/>
		<circle class="st1" cx="456" cy="543.08" r="4.43"/>
		<circle class="st1" cx="473.43" cy="543.08" r="4.43"/>
		<circle class="st1" cx="490.41" cy="543.08" r="4.43"/>
		<circle class="st1" cx="508.06" cy="543.08" r="4.43"/>
		<circle class="st1" cx="525.04" cy="543.08" r="4.43"/>
		<circle class="st1" cx="541.6" cy="543.08" r="4.43"/>
		<circle class="st1" cx="558.58" cy="543.08" r="4.43"/>
		<circle class="st1" cx="439.24" cy="560.46" r="4.43"/>
		<circle class="st1" cx="456.22" cy="560.46" r="4.43"/>
		<circle class="st1" cx="473.65" cy="560.46" r="4.43"/>
		<circle class="st1" cx="490.63" cy="560.46" r="4.43"/>
		<circle class="st1" cx="508.28" cy="560.46" r="4.43"/>
		<circle class="st1" cx="525.26" cy="560.46" r="4.43"/>
		<circle class="st1" cx="541.82" cy="560.46" r="4.43"/>
		<circle class="st1" cx="558.8" cy="560.46" r="4.43"/>
		<circle class="st1" cx="439.24" cy="577.98" r="4.43"/>
		<circle class="st1" cx="456.22" cy="577.98" r="4.43"/>
		<circle class="st1" cx="473.65" cy="577.98" r="4.43"/>
		<circle class="st1" cx="490.63" cy="577.98" r="4.43"/>
		<circle class="st1" cx="508.28" cy="577.98" r="4.43"/>
		<circle class="st1" cx="525.26" cy="577.98" r="4.43"/>
		<circle class="st1" cx="541.82" cy="577.98" r="4.43"/>
		<circle class="st1" cx="558.8" cy="577.98" r="4.43"/>
		<circle class="st1" cx="439.46" cy="595.36" r="4.43"/>
		<circle class="st1" cx="456.44" cy="595.36" r="4.43"/>
		<circle class="st1" cx="473.87" cy="595.36" r="4.43"/>
		<circle class="st1" cx="490.85" cy="595.36" r="4.43"/>
		<circle class="st1" cx="508.5" cy="595.36" r="4.43"/>
		<circle class="st1" cx="525.48" cy="595.36" r="4.43"/>
		<circle class="st1" cx="542.04" cy="595.36" r="4.43"/>
		<circle class="st1" cx="559.02" cy="595.36" r="4.43"/>
		<circle class="st1" cx="439.37" cy="612.88" r="4.43"/>
		<circle class="st1" cx="456.34" cy="612.88" r="4.43"/>
		<circle class="st1" cx="473.78" cy="612.88" r="4.43"/>
		<circle class="st1" cx="490.76" cy="612.88" r="4.43"/>
		<circle class="st1" cx="508.41" cy="612.88" r="4.43"/>
		<circle class="st1" cx="525.39" cy="612.88" r="4.43"/>
		<circle class="st1" cx="541.95" cy="612.88" r="4.43"/>
		<circle class="st1" cx="558.93" cy="612.88" r="4.43"/>
		<circle class="st1" cx="439.59" cy="630.26" r="4.43"/>
		<circle class="st1" cx="456.56" cy="630.26" r="4.43"/>
		<circle class="st1" cx="474" cy="630.26" r="4.43"/>
		<circle class="st1" cx="490.98" cy="630.26" r="4.43"/>
		<circle class="st1" cx="508.63" cy="630.26" r="4.43"/>
		<circle class="st1" cx="525.61" cy="630.26" r="4.43"/>
		<circle class="st1" cx="542.17" cy="630.26" r="4.43"/>
		<circle class="st1" cx="559.15" cy="630.26" r="4.43"/>
		<circle class="st1" cx="439.59" cy="647.64" r="4.43"/>
		<circle class="st1" cx="456.56" cy="647.64" r="4.43"/>
		<circle class="st1" cx="474" cy="647.64" r="4.43"/>
		<circle class="st1" cx="490.98" cy="647.64" r="4.43"/>
		<circle class="st1" cx="508.63" cy="647.64" r="4.43"/>
		<circle class="st1" cx="525.61" cy="647.64" r="4.43"/>
		<circle class="st1" cx="542.17" cy="647.64" r="4.43"/>
		<circle class="st1" cx="559.15" cy="647.64" r="4.43"/>
		<circle class="st1" cx="439.81" cy="665.02" r="4.43"/>
		<circle class="st1" cx="456.78" cy="665.02" r="4.43"/>
		<circle class="st1" cx="474.22" cy="665.02" r="4.43"/>
		<circle class="st1" cx="491.19" cy="665.02" r="4.43"/>
		<circle class="st1" cx="508.85" cy="665.02" r="4.43"/>
		<circle class="st1" cx="525.83" cy="665.02" r="4.43"/>
		<circle class="st1" cx="542.39" cy="665.02" r="4.43"/>
		<circle class="st1" cx="559.36" cy="665.02" r="4.43"/>
	</g>
	<g>
		<line class="st1" x1="65.6" y1="139.88" x2="125.6" y2="199.89"/>
		<line class="st1" x1="126.31" y1="139.97" x2="66.31" y2="199.97"/>
	</g>
	<path class="st1" d="M55.43,483.43l-26.28-26.28c-3.47-3.47-3.47-9.1,0-12.58l26.28-26.28c3.47-3.47,9.1-3.47,12.58,0l26.28,26.28
		c3.47,3.47,3.47,9.1,0,12.58L68,483.43C64.53,486.9,58.9,486.9,55.43,483.43z"/>
	<path class="st1" d="M723.21,680.21l-26.28-26.28c-3.47-3.47-3.47-9.1,0-12.58l26.28-26.28c3.47-3.47,9.1-3.47,12.58,0l26.28,26.28
		c3.47,3.47,3.47,9.1,0,12.58l-26.28,26.28C732.31,683.68,726.68,683.68,723.21,680.21z"/>
	<circle class="st1" cx="912" cy="582.86" r="37.25"/>
	<g>
		<line class="st1" x1="431.44" y1="450.86" x2="185.45" y2="450.86"/>
	</g>
	<g>
		<line class="st1" x1="902.93" y1="510.86" x2="706.32" y2="510.86"/>
	</g>
	<g>
		<line class="st1" x1="328" y1="150.43" x2="198.25" y2="150.43"/>
	</g>
	<g>
		<line class="st1" x1="190.47" y1="590.93" x2="60.73" y2="590.93"/>
	</g>
	<g>
		<line class="st1" x1="945.09" y1="199.97" x2="804.42" y2="199.97"/>
	</g>
	<g>
		<rect x="174.86" y="192" class="st2" width="336.14" height="231.43"/>
		<rect x="192.29" y="208.43" class="st3" width="301.28" height="198"/>
		<path class="st0" d="M397.71,296.62v82.93c0,6.7-5.17,12.2-11.74,12.71c-0.34,0.03-0.68,0.04-1.02,0.04h-158.2
			c-3.63,0-6.9-1.51-9.21-3.94c-2.2-2.29-3.55-5.4-3.55-8.82v-82.93c0-7.05,5.71-12.76,12.76-12.76h158.2
			C392.01,283.86,397.71,289.57,397.71,296.62z"/>
		<path class="st0" d="M342.1,239.1h-75.06c-3.26,0-5.9-2.64-5.9-5.9v0c0-3.26,2.64-5.9,5.9-5.9h75.06c3.26,0,5.9,2.64,5.9,5.9v0
			C348,236.46,345.36,239.1,342.1,239.1z"/>
		<path class="st0" d="M396.96,260.7H267.04c-3.26,0-5.9-2.64-5.9-5.9v0c0-3.26,2.64-5.9,5.9-5.9h129.92c3.26,0,5.9,2.64,5.9,5.9v0
			C402.86,258.05,400.22,260.7,396.96,260.7z"/>
		<path class="st4" d="M397.71,375.2v4.34c0,6.7-5.17,12.2-11.74,12.71c-0.84,0.03-1.66,0.04-2.44,0.04H226.76
			c-3.63,0-6.9-1.51-9.21-3.94l42.38-47.09l19.09,21.22l52.35-59.49L397.71,375.2z"/>
		<circle class="st4" cx="258.01" cy="314.48" r="9.57"/>
		<g>
			<path class="st0" d="M245.43,243c0,1.88-0.29,3.7-0.83,5.4c-2.29,7.3-9.11,12.6-17.17,12.6c-5.35,0-10.15-2.33-13.43-6.03
				c-2.84-3.18-4.57-7.38-4.57-11.97c0-9.94,8.06-18,18-18S245.43,233.06,245.43,243z"/>
			<path class="st4" d="M244.6,248.4c-2.29,7.3-9.11,12.6-17.17,12.6c-5.35,0-10.15-2.33-13.43-6.03l5.54-6.15l4.56,5.06l12.49-14.2
				L244.6,248.4z"/>
			<circle class="st4" cx="222.93" cy="238.5" r="4.5"/>
		</g>
	</g>
	<g>
		<path class="st5" d="M296.56,570.99c0,0-53.5-11.74,0-99.42V570.99z"/>
		<path class="st3" d="M296.56,570.99c0,0,53.5-11.74,0-99.42V570.99z"/>
		<path class="st5" d="M317.63,599.69c0,0-17.15-35.29,55.9-44.14L317.63,599.69z"/>
		<path class="st3" d="M317.63,599.69c0,0,30.36,24.87,55.9-44.14L317.63,599.69z"/>
		<path class="st5" d="M267.17,575.16c0,0,14.89-30.64-48.53-38.32L267.17,575.16z"/>
		<path class="st3" d="M267.17,575.16c0,0-26.35,21.59-48.53-38.32L267.17,575.16z"/>
		<polygon class="st3" points="274.94,632.43 317.63,632.43 308.44,675 284.67,675 		"/>
		<line class="st1" x1="296.56" y1="632.43" x2="296.56" y2="524.41"/>
		<line class="st1" x1="296.56" y1="615.29" x2="335.2" y2="585.58"/>
		<line class="st1" x1="296.56" y1="598.51" x2="249.35" y2="561.09"/>
		<path class="st2" d="M283.73,658.91l-0.18,0.04c-0.28,0.06-0.57-0.11-0.63-0.4l-5.19-22.71c-0.06-0.28,0.11-0.57,0.4-0.63
			l0.18-0.04c0.28-0.06,0.57,0.11,0.63,0.4l5.19,22.71C284.19,658.56,284.01,658.84,283.73,658.91z"/>
		<path class="st2" d="M286.34,670.34l-0.18,0.04c-0.28,0.06-0.57-0.11-0.63-0.4l-1.56-6.82c-0.06-0.28,0.11-0.57,0.4-0.63
			l0.18-0.04c0.28-0.06,0.57,0.11,0.63,0.4l1.56,6.82C286.8,669.99,286.62,670.28,286.34,670.34z"/>
	</g>
	<g>
		<path class="st5" d="M807.41,120.99c0,0-53.5-11.74,0-99.42V120.99z"/>
		<path class="st3" d="M807.41,120.99c0,0,53.5-11.74,0-99.42V120.99z"/>
		<path class="st5" d="M828.49,149.69c0,0-17.15-35.29,55.9-44.14L828.49,149.69z"/>
		<path class="st3" d="M828.49,149.69c0,0,30.36,24.87,55.9-44.14L828.49,149.69z"/>
		<path class="st5" d="M778.03,125.16c0,0,14.89-30.64-48.53-38.32L778.03,125.16z"/>
		<path class="st3" d="M778.03,125.16c0,0-26.35,21.59-48.53-38.32L778.03,125.16z"/>
		<polygon class="st3" points="785.8,182.43 828.49,182.43 819.3,225 795.52,225 		"/>
		<line class="st1" x1="807.41" y1="182.43" x2="807.41" y2="74.41"/>
		<line class="st1" x1="807.41" y1="165.29" x2="846.06" y2="135.58"/>
		<line class="st1" x1="807.41" y1="148.51" x2="760.21" y2="111.09"/>
		<path class="st2" d="M794.58,208.91l-0.18,0.04c-0.28,0.06-0.57-0.11-0.63-0.4l-5.19-22.71c-0.06-0.28,0.11-0.57,0.4-0.63
			l0.18-0.04c0.28-0.06,0.57,0.11,0.63,0.4l5.19,22.71C795.04,208.56,794.87,208.84,794.58,208.91z"/>
		<path class="st2" d="M797.2,220.34l-0.18,0.04c-0.28,0.06-0.57-0.11-0.63-0.4l-1.56-6.82c-0.06-0.28,0.11-0.57,0.4-0.63l0.18-0.04
			c0.28-0.06,0.57,0.11,0.63,0.4l1.56,6.82C797.66,219.99,797.48,220.28,797.2,220.34z"/>
	</g>
	<g>
		<path class="st4" d="M839.29,298.43H571.57c-15.54,0-28.14-12.6-28.14-28.14v-23.86c0-11.05,8.95-20,20-20h284
			c11.05,0,20,8.95,20,20v23.86C867.43,285.83,854.83,298.43,839.29,298.43z"/>
		<path class="st2" d="M847.43,568.43h-284c-11.05,0-20-8.95-20-20v-286h324v286C867.43,559.47,858.47,568.43,847.43,568.43z"/>
		<g>
			<circle class="st0" cx="588.43" cy="307.43" r="27"/>
			<circle class="st3" cx="588.43" cy="307.43" r="18"/>
		</g>
		<path class="st3" d="M849.43,399.43v130c0,10.51-8.1,19.12-18.4,19.93c-0.53,0.05-1.06,0.07-1.6,0.07h-248
			c-5.69,0-10.81-2.37-14.44-6.18c-3.45-3.59-5.56-8.46-5.56-13.82v-130c0-11.05,8.95-20,20-20h248
			C840.48,379.43,849.43,388.38,849.43,399.43z"/>
		<path class="st0" d="M756.95,298.43H642.43c-4.97,0-9-4.03-9-9v0c0-4.97,4.03-9,9-9h114.52c4.97,0,9,4.03,9,9v0
			C765.95,294.4,761.92,298.43,756.95,298.43z"/>
		<path class="st0" d="M840.65,334.43H642.43c-4.97,0-9-4.03-9-9v0c0-4.97,4.03-9,9-9h198.22c4.97,0,9,4.03,9,9v0
			C849.65,330.4,845.62,334.43,840.65,334.43z"/>
		<path class="st0" d="M849.43,522.63v6.8c0,10.51-8.1,19.12-18.4,19.93c-1.32,0.05-2.61,0.07-3.82,0.07H581.43
			c-5.69,0-10.81-2.37-14.44-6.18l66.44-73.82l29.93,33.26l82.07-93.26L849.43,522.63z"/>
		<circle class="st0" cx="630.43" cy="427.43" r="15"/>
		<circle class="st0" cx="564.57" cy="244.57" r="7.14"/>
		<circle class="st0" cx="586" cy="244.57" r="7.14"/>
		<circle class="st0" cx="607.43" cy="244.57" r="7.14"/>
	</g>
</g>
</svg>
