<?xml version="1.0" encoding="utf-8"?>
<!-- Generator: Adobe Illustrator 24.3.0, SVG Export Plug-In . SVG Version: 6.00 Build 0)  -->
<svg version="1.1" id="backdrop" xmlns="http://www.w3.org/2000/svg" xmlns:xlink="http://www.w3.org/1999/xlink" x="0px" y="0px"
	 viewBox="0 0 943 114.53" style="enable-background:new 0 0 943 114.53;" xml:space="preserve">
<style type="text/css">
	.st0{fill:url(#SVGID_1_);}
	.st1{fill:url(#SVGID_2_);}
	.st2{fill:url(#SVGID_3_);}
	.st3{fill:url(#SVGID_4_);}
</style>
<g>
	<g>
		<linearGradient id="SVGID_1_" gradientUnits="userSpaceOnUse" x1="480.5" y1="114.7161" x2="480.5" y2="42.0602">
			<stop  offset="0" style="stop-color:#2926FB"/>
			<stop  offset="1" style="stop-color:#7555F5"/>
		</linearGradient>
		<path class="st0" d="M18,108.04c3.68-3.32,7.61-6.35,11.63-9.24c1.99-1.48,4.06-2.83,6.09-4.25c2.08-1.35,4.14-2.72,6.24-4.04
			c8.41-5.25,17.11-10.04,26.05-14.32c8.94-4.28,18.04-8.25,27.37-11.63c4.62-1.8,9.35-3.29,14.05-4.87
			c2.34-0.82,4.74-1.45,7.11-2.17l7.14-2.09c19.16-5.17,38.74-8.72,58.47-10.8c19.73-2.08,39.62-2.75,59.45-1.94l3.72,0.1
			c1.24,0.03,2.48,0.15,3.71,0.22l7.43,0.49l7.43,0.49c2.47,0.22,4.94,0.51,7.4,0.76l7.4,0.79c2.46,0.28,4.94,0.48,7.39,0.89
			l14.73,2.17c2.46,0.32,4.9,0.79,7.33,1.26l7.32,1.37l7.32,1.37c1.22,0.21,2.43,0.48,3.64,0.76l3.63,0.82l14.51,3.29
			c4.82,1.19,9.59,2.53,14.39,3.79l7.19,1.92l1.8,0.48l1.78,0.55l3.56,1.09l14.23,4.37c9.48,2.89,18.89,5.91,28.38,8.71l14.31,3.95
			l7.16,1.97l7.21,1.76l14.42,3.52c4.82,1.11,9.67,2.09,14.51,3.14c9.65,2.2,19.4,3.88,29.13,5.73l3.65,0.68l3.66,0.59l7.33,1.17
			l7.33,1.17c2.44,0.39,4.88,0.8,7.34,1.1c9.81,1.28,19.6,2.74,29.46,3.71c4.92,0.52,9.83,1.11,14.76,1.57l14.79,1.26
			c4.93,0.47,9.87,0.75,14.81,1.05c4.94,0.29,9.88,0.66,14.82,0.88c9.89,0.39,19.78,0.89,29.68,0.99l7.42,0.15l3.71,0.07l3.71,0
			l14.85-0.01c4.95-0.01,9.9-0.16,14.85-0.24l7.42-0.14l7.42-0.28c19.79-0.64,39.55-1.96,59.27-3.77
			c19.72-1.81,39.39-4.16,58.97-7.14c19.58-2.98,39.08-6.51,58.38-10.94c4.82-1.13,9.65-2.23,14.44-3.49
			c4.81-1.18,9.57-2.54,14.34-3.87c9.49-2.82,18.96-5.8,27.99-9.9c-8.99,4.17-18.45,7.24-27.92,10.14
			c-4.76,1.37-9.51,2.77-14.32,3.99c-4.78,1.3-9.6,2.44-14.42,3.61c-19.28,4.59-38.77,8.29-58.34,11.43
			c-19.58,3.09-39.27,5.52-59,7.43c-19.73,1.9-39.52,3.32-59.33,4.05l-7.43,0.31l-7.43,0.17c-4.96,0.1-9.91,0.27-14.87,0.31
			l-14.87,0.04l-3.72,0.01l-3.72-0.06l-7.43-0.13c-9.92-0.09-19.82-0.58-29.73-0.95c-4.95-0.21-9.9-0.58-14.85-0.86
			c-4.95-0.3-9.9-0.57-14.84-1.03l-14.82-1.24c-4.94-0.45-9.86-1.04-14.79-1.55c-9.87-0.95-19.69-2.4-29.52-3.67
			c-2.46-0.3-4.91-0.71-7.36-1.09l-7.35-1.16l-7.35-1.16l-3.67-0.58l-3.66-0.68c-9.75-1.83-19.53-3.5-29.2-5.7
			c-4.84-1.06-9.7-2.05-14.53-3.17l-14.45-3.55l-7.22-1.78l-7.17-1.98l-14.34-3.98c-9.5-2.82-18.96-5.87-28.42-8.77l-14.18-4.38
			l-3.54-1.09l-1.77-0.55l-1.79-0.48l-7.16-1.92c-4.78-1.26-9.54-2.61-14.34-3.8l-14.46-3.31l-3.62-0.83
			c-1.2-0.28-2.41-0.55-3.63-0.76l-7.29-1.37l-7.29-1.37c-2.43-0.46-4.86-0.94-7.31-1.26l-14.67-2.18
			c-2.44-0.41-4.91-0.61-7.36-0.89l-7.37-0.81c-2.46-0.26-4.91-0.56-7.37-0.79l-7.4-0.52l-7.4-0.52c-1.23-0.08-2.47-0.2-3.7-0.24
			l-3.71-0.11c-19.76-0.9-39.59-0.33-59.27,1.66c-19.68,1.98-39.22,5.45-58.35,10.49l-7.14,2.03c-2.37,0.7-4.77,1.3-7.11,2.11
			c-4.7,1.54-9.44,2.99-14.06,4.75c-9.33,3.29-18.45,7.18-27.41,11.38c-8.96,4.2-17.69,8.91-26.13,14.09
			c-2.11,1.3-4.18,2.65-6.27,3.98c-2.04,1.4-4.13,2.74-6.12,4.2C25.66,101.76,21.71,104.76,18,108.04z"/>
	</g>
	<g>
		<linearGradient id="SVGID_2_" gradientUnits="userSpaceOnUse" x1="471.25" y1="99.3831" x2="471.25" y2="15.9415">
			<stop  offset="0" style="stop-color:#2926FB"/>
			<stop  offset="1" style="stop-color:#7555F5"/>
		</linearGradient>
		<path class="st1" d="M0,60.33c8.87-4.62,18.1-8.52,27.41-12.16c9.33-3.61,18.79-6.87,28.34-9.84
			c19.13-5.85,38.62-10.54,58.32-14.09c19.71-3.51,39.63-5.82,59.61-7.03c19.99-1.18,40.04-1.21,60.04-0.16l7.5,0.39
			c1.25,0.05,2.5,0.14,3.75,0.26l3.74,0.32l7.48,0.65c2.49,0.24,4.99,0.37,7.48,0.72l14.91,1.82c2.49,0.26,4.95,0.73,7.43,1.1
			l7.42,1.18c2.47,0.4,4.95,0.76,7.41,1.2l7.37,1.44l7.37,1.44c2.46,0.48,4.92,0.93,7.35,1.54l14.63,3.41
			c1.22,0.29,2.44,0.55,3.65,0.87l3.62,0.99l7.25,1.97c9.71,2.47,19.21,5.67,28.78,8.6c9.48,3.19,18.91,6.65,28.34,9.92l14.13,4.95
			c1.18,0.4,2.35,0.85,3.54,1.21l3.58,1.09l7.16,2.19l7.16,2.19l3.58,1.09l3.62,0.97l14.47,3.84c4.8,1.36,9.7,2.38,14.56,3.52
			c4.87,1.09,9.72,2.29,14.61,3.3l14.7,2.88c2.45,0.47,4.9,0.98,7.35,1.42l7.39,1.22l14.78,2.43l14.84,2.02l7.42,1.01
			c2.48,0.32,4.96,0.56,7.44,0.84l14.89,1.63c19.89,1.82,39.82,3.35,59.8,4.01c9.98,0.49,19.97,0.57,29.96,0.8
			c4.99,0.09,9.99,0.05,14.99,0.08c5,0.02,9.99,0.04,14.99-0.07c39.97-0.47,79.91-2.84,119.69-6.89
			c19.89-1.99,39.74-4.39,59.53-7.25c19.78-2.88,39.53-6.08,59.11-10.13c-19.55,4.21-39.28,7.58-59.04,10.62
			c-19.77,3.02-39.61,5.59-59.5,7.74c-39.78,4.26-79.75,6.8-119.77,7.46c-5,0.13-10,0.14-15.01,0.14c-5-0.01-10.01,0.06-15.01-0.01
			c-10-0.2-20.01-0.27-30.01-0.74c-20.01-0.63-39.97-2.13-59.91-3.92l-14.93-1.61c-2.49-0.28-4.98-0.51-7.46-0.83l-7.44-1l-14.88-2
			l-14.82-2.42l-7.41-1.21c-2.46-0.43-4.92-0.94-7.37-1.41l-14.74-2.86c-4.9-1.01-9.77-2.2-14.65-3.29
			c-4.88-1.14-9.78-2.14-14.6-3.51l-14.51-3.87l-3.63-0.98l-3.59-1.1l-7.18-2.21l-7.18-2.21l-3.59-1.1
			c-1.2-0.37-2.37-0.82-3.55-1.22l-14.17-4.99l-14.13-5l-7.06-2.5l-3.53-1.25l-1.76-0.62l-1.79-0.56c-9.54-2.94-19-6.14-28.68-8.62
			l-7.22-1.98l-3.61-0.99c-1.2-0.33-2.43-0.58-3.64-0.88l-14.58-3.42c-2.42-0.61-4.88-1.06-7.33-1.54l-7.35-1.45l-7.35-1.45
			c-2.46-0.44-4.93-0.8-7.39-1.2c-19.68-3.37-39.57-5.47-59.5-6.62c-19.93-1.13-39.94-1.2-59.88-0.11
			c-19.94,1.11-39.83,3.34-59.52,6.73c-19.69,3.38-39.19,7.9-58.35,13.6c-9.57,2.89-19.05,6.07-28.4,9.61
			C18.16,51.96,8.91,55.78,0,60.33z"/>
	</g>
	<g>
		<linearGradient id="SVGID_3_" gradientUnits="userSpaceOnUse" x1="485.9643" y1="92.5955" x2="485.9643" y2="-0.4231">
			<stop  offset="0" style="stop-color:#2926FB"/>
			<stop  offset="1" style="stop-color:#7555F5"/>
		</linearGradient>
		<path class="st2" d="M942.5,73.19c-76.68,8.75-153.58,16.55-230.81,18.58l-14.48,0.35l-7.24,0.17c-2.41,0.05-4.83,0.15-7.24,0.09
			l-28.97-0.27c-2.41-0.04-4.83-0.01-7.24-0.1l-7.24-0.33l-14.47-0.66l-7.24-0.33c-2.41-0.12-4.83-0.18-7.23-0.44L595.91,89
			l-14.44-1.25l-14.37-1.87l-14.37-1.89c-4.77-0.74-9.52-1.66-14.28-2.48l-14.27-2.53c-4.73-1-9.44-2.09-14.15-3.12
			c-4.71-1.07-9.44-2.06-14.14-3.19l-14.01-3.7c-37.35-10-73.8-22.86-110.23-35.59c-9.1-3.22-18.22-6.31-27.41-9.17
			c-4.63-1.33-9.23-2.75-13.88-4.02l-13.99-3.6c-18.74-4.48-37.73-7.88-56.84-10.36c-38.24-4.91-76.93-6.12-115.45-4.2
			c-19.26,0.92-38.5,2.56-57.63,5.01C67.3,9.5,48.23,12.57,29.43,16.94c18.76-4.53,37.82-7.77,56.94-10.39
			c19.13-2.61,38.37-4.41,57.65-5.5c38.56-2.12,77.33-1.08,115.69,3.65c19.18,2.38,38.24,5.72,57.05,10.21l14.05,3.59
			c4.66,1.27,9.29,2.68,13.93,4.01c9.23,2.86,18.41,5.95,27.5,9.15c36.45,12.67,72.89,25.46,110.14,35.38l13.97,3.71
			c4.68,1.13,9.4,2.13,14.09,3.2c4.7,1.04,9.4,2.13,14.11,3.14l14.23,2.54c4.75,0.82,9.48,1.75,14.24,2.49l14.33,1.9l14.33,1.89
			l14.4,1.27l14.4,1.27c2.4,0.25,4.81,0.32,7.21,0.45l7.22,0.34l14.44,0.69l7.22,0.34c2.41,0.09,4.82,0.07,7.23,0.11l28.92,0.32
			c2.41,0.06,4.82-0.02,7.23-0.06l7.23-0.14l14.46-0.28l14.46-0.28l14.45-0.65l28.91-1.33l3.61-0.17l3.61-0.25l7.22-0.5l14.44-0.99
			c9.62-0.69,19.25-1.26,28.87-2.04l28.84-2.47l14.42-1.24c4.81-0.42,9.62-0.79,14.41-1.31L942.5,73.19z"/>
	</g>
</g>
<g>
	<linearGradient id="SVGID_4_" gradientUnits="userSpaceOnUse" x1="529.7143" y1="106.7954" x2="529.7143" y2="28.2249">
		<stop  offset="0" style="stop-color:#2926FB"/>
		<stop  offset="1" style="stop-color:#7555F5"/>
	</linearGradient>
	<path class="st3" d="M116.43,43.06c4.04-1.68,8.21-3,12.41-4.22c4.21-1.19,8.45-2.27,12.72-3.18c8.54-1.87,17.19-3.26,25.87-4.31
		c8.68-1.04,17.41-1.78,26.15-2.14l3.28-0.16l3.28-0.08l6.56-0.16l6.56,0c2.19-0.01,4.38-0.01,6.56,0.07
		c35.01,0.74,69.85,5.53,104.05,12.92c4.27,0.97,8.55,1.85,12.8,2.89l12.75,3.14c4.24,1.09,8.45,2.28,12.67,3.42
		c4.23,1.11,8.42,2.38,12.61,3.63c8.41,2.41,16.72,5.16,25.05,7.84l12.48,3.97l6.24,1.98l3.12,0.99l3.15,0.9
		c8.4,2.36,16.76,4.9,25.25,6.95l12.69,3.22l12.77,2.89l6.39,1.44c2.13,0.46,4.28,0.86,6.42,1.3l12.84,2.55
		c4.28,0.84,8.6,1.52,12.9,2.28c4.31,0.72,8.59,1.56,12.92,2.15c8.64,1.28,17.26,2.67,25.93,3.68c4.33,0.53,8.66,1.14,13,1.61
		l13.03,1.36c2.17,0.22,4.34,0.48,6.52,0.66l6.53,0.54l13.05,1.07l13.07,0.83l6.54,0.4l6.54,0.29l13.09,0.56l13.1,0.32l6.55,0.15
		l6.55,0.04c4.37,0.02,8.73,0.08,13.1,0.06c8.73-0.11,17.47-0.13,26.2-0.42c8.73-0.17,17.46-0.58,26.19-0.95
		c17.45-0.9,34.88-2.11,52.28-3.75c17.39-1.68,34.75-3.73,52.05-6.19c17.3-2.43,34.55-5.28,51.7-8.64
		c17.15-3.37,34.21-7.24,51.05-11.92c-16.8,4.83-33.83,8.86-50.96,12.39c-17.13,3.53-34.36,6.54-51.66,9.13
		c-17.3,2.57-34.67,4.7-52.07,6.48c-17.41,1.74-34.85,3.04-52.32,4.03c-17.47,0.93-34.96,1.44-52.46,1.56
		c-4.37,0.03-8.75-0.03-13.12-0.04l-6.56-0.03l-6.56-0.14l-13.12-0.3l-13.11-0.54l-6.56-0.27l-6.55-0.39l-13.1-0.8l-13.08-1.05
		l-6.54-0.53c-2.18-0.17-4.35-0.43-6.53-0.65l-13.06-1.34c-4.35-0.46-8.68-1.07-13.03-1.59c-8.69-1-17.34-2.38-26-3.65
		c-4.33-0.6-8.63-1.45-12.94-2.18c-4.31-0.77-8.63-1.46-12.92-2.31l-12.87-2.58c-2.14-0.44-4.29-0.84-6.43-1.31l-6.4-1.46
		l-12.8-2.92l-12.72-3.25c-8.51-2.07-16.88-4.63-25.3-7.01l-3.15-0.91l-3.13-0.99l-6.25-2l-12.5-4c-8.31-2.68-16.6-5.44-24.99-7.86
		c-16.73-4.99-33.62-9.5-50.67-13.24c-34.08-7.55-68.82-12.5-103.74-13.44c-2.18-0.09-4.36-0.11-6.55-0.13l-6.55-0.06l-6.55,0.1
		l-3.27,0.05l-3.27,0.13c-8.73,0.27-17.44,0.94-26.13,1.89c-8.68,0.96-17.33,2.28-25.88,4.07c-4.28,0.87-8.53,1.91-12.74,3.06
		C124.67,40.13,120.48,41.42,116.43,43.06z"/>
</g>
</svg>
