<?xml version="1.0" encoding="utf-8"?>
<!-- Generator: Adobe Illustrator 24.3.0, SVG Export Plug-In . SVG Version: 6.00 Build 0)  -->
<svg version="1.1" xmlns="http://www.w3.org/2000/svg" xmlns:xlink="http://www.w3.org/1999/xlink" x="0px" y="0px"
	 viewBox="0 0 1255 994" style="enable-background:new 0 0 1255 994;" xml:space="preserve">
<style type="text/css">
	.st0{fill:#FFEDC0;}
	.st1{fill:none;stroke:#7555F5;stroke-miterlimit:10;}
	.st2{fill:#FFC522;}
	.st3{fill:#FFD364;}
	.st4{fill:#FFFFFF;}
	.st5{fill:#FFC200;}
	.st6{fill:#FFF7E6;}
	.st7{fill:#DDE9EC;}
	.st8{opacity:0.2;}
</style>
<g id="Layer_1">
	<rect class="st0" width="1255" height="994"/>
	<line class="st1" x1="919" y1="178.14" x2="810.81" y2="178.14"/>
	<line class="st1" x1="420" y1="527.14" x2="228.81" y2="527.14"/>
	<line class="st1" x1="752" y1="70.14" x2="511.81" y2="70.14"/>
	<line class="st1" x1="250" y1="679.14" x2="17.81" y2="679.14"/>
	<line class="st1" x1="937" y1="919.14" x2="745.81" y2="919.14"/>
	<g>
		<line class="st1" x1="954.5" y1="40.1" x2="1014.5" y2="100.1"/>
		<line class="st1" x1="1015.22" y1="40.19" x2="955.21" y2="100.19"/>
	</g>
	<path class="st1" d="M64.14,968.57l-26.28-26.28c-3.47-3.47-3.47-9.1,0-12.58l26.28-26.28c3.47-3.47,9.1-3.47,12.58,0L103,929.71
		c3.47,3.47,3.47,9.1,0,12.58l-26.28,26.28C73.24,972.04,67.61,972.04,64.14,968.57z"/>
	<path class="st1" d="M1199.14,486.57l-26.28-26.28c-3.47-3.47-3.47-9.1,0-12.58l26.28-26.28c3.47-3.47,9.1-3.47,12.58,0
		l26.28,26.28c3.47,3.47,3.47,9.1,0,12.58l-26.28,26.28C1208.24,490.04,1202.61,490.04,1199.14,486.57z"/>
	<circle class="st1" cx="70.57" cy="527.43" r="37.25"/>
	<ellipse class="st1" cx="462.41" cy="926.34" rx="30.09" ry="30.16"/>
	<g>
		<path class="st2" d="M561.64,203.03c0,0-48.91-10.73,0-90.88V203.03z"/>
		<path class="st3" d="M561.64,203.03c0,0,48.91-10.73,0-90.88V203.03z"/>
		<path class="st2" d="M580.9,229.26c0,0-15.68-32.26,51.1-40.35L580.9,229.26z"/>
		<path class="st3" d="M580.9,229.26c0,0,27.75,22.73,51.1-40.35L580.9,229.26z"/>
		<path class="st2" d="M534.78,206.83c0,0,13.61-28.01-44.36-35.03L534.78,206.83z"/>
		<path class="st3" d="M534.78,206.83c0,0-24.09,19.74-44.36-35.03L534.78,206.83z"/>
		<polygon class="st3" points="541.88,259.19 580.9,259.19 572.5,298.1 550.77,298.1 		"/>
		<line class="st1" x1="561.64" y1="259.19" x2="561.64" y2="160.45"/>
		<line class="st1" x1="561.64" y1="243.52" x2="596.96" y2="216.36"/>
		<line class="st1" x1="561.64" y1="228.18" x2="518.49" y2="193.97"/>
		<path class="st4" d="M550,283.37l-0.34,0.08c-0.21,0.05-0.42-0.08-0.47-0.29l-4.79-20.94c-0.05-0.21,0.08-0.42,0.29-0.47
			l0.34-0.08c0.21-0.05,0.42,0.08,0.47,0.29l4.79,20.94C550.34,283.11,550.21,283.32,550,283.37z"/>
		<path class="st4" d="M552.39,293.82l-0.34,0.08c-0.21,0.05-0.42-0.08-0.47-0.29l-1.47-6.41c-0.05-0.21,0.08-0.42,0.29-0.47
			l0.34-0.08c0.21-0.05,0.42,0.08,0.47,0.29l1.47,6.41C552.73,293.57,552.6,293.77,552.39,293.82z"/>
	</g>
</g>
<g id="Layer_4">
	<g>
		<path class="st1" d="M757.21,887H122.48c-11.48,0-20.79-9.31-20.79-20.79V745.79c0-11.48,9.31-20.79,20.79-20.79h634.73
			c11.48,0,20.79,9.31,20.79,20.79v120.43C778,877.69,768.69,887,757.21,887z"/>
		<path class="st3" d="M740.52,869H105.79C94.31,869,85,859.69,85,848.21V727.79c0-11.48,9.31-20.79,20.79-20.79h634.73
			c11.48,0,20.79,9.31,20.79,20.79v120.43C761.3,859.69,752,869,740.52,869z"/>
		<g>
			<path class="st0" d="M220,788c0,5.64-0.87,11.1-2.49,16.2C210.64,826.1,190.18,842,166,842c-16.05,0-30.45-6.99-40.29-18.09
				C117.19,814.37,112,801.77,112,788c0-29.82,24.18-54,54-54S220,758.18,220,788z"/>
			<path class="st5" d="M217.51,804.2C210.64,826.1,190.18,842,166,842c-16.05,0-30.45-6.99-40.29-18.09l16.62-18.45l13.68,15.18
				l37.47-42.6L217.51,804.2z"/>
			<circle class="st5" cx="152.5" cy="774.5" r="13.5"/>
		</g>
		<path class="st0" d="M715,797H265c-4.97,0-9-4.03-9-9l0,0c0-4.97,4.03-9,9-9h450c4.97,0,9,4.03,9,9l0,0
			C724,792.97,719.97,797,715,797z"/>
		<path class="st0" d="M715,833H265c-4.97,0-9-4.03-9-9l0,0c0-4.97,4.03-9,9-9h450c4.97,0,9,4.03,9,9l0,0
			C724,828.97,719.97,833,715,833z"/>
		<path class="st0" d="M715,761H265c-4.97,0-9-4.03-9-9l0,0c0-4.97,4.03-9,9-9h450c4.97,0,9,4.03,9,9l0,0
			C724,756.97,719.97,761,715,761z"/>
	</g>
	<g>
		<path class="st1" d="M1135.21,662H519.79c-11.48,0-20.79-9.31-20.79-20.79V341.25c0-11.48,9.31-20.79,20.79-20.79h615.43
			c11.48,0,20.79,9.31,20.79,20.79v299.97C1156,652.69,1146.69,662,1135.21,662z"/>
		<path class="st6" d="M1117.21,643.54H501.79c-11.48,0-20.79-9.31-20.79-20.79V322.79c0-11.48,9.31-20.79,20.79-20.79h615.43
			c11.48,0,20.79,9.31,20.79,20.79v299.97C1138,634.23,1128.69,643.54,1117.21,643.54z"/>
		<g>
			<circle class="st1" cx="809.5" cy="486.5" r="40.5"/>
			<circle class="st5" cx="800.5" cy="477.5" r="40.5"/>
			<polygon class="st7" points="817.43,477.5 790.43,461.91 790.43,493.09 			"/>
		</g>
		<rect x="517" y="608" class="st3" width="585" height="9"/>
		<g>
			<path class="st0" d="M544,347c0,1.88-0.29,3.7-0.83,5.4c-2.29,7.3-9.11,12.6-17.17,12.6c-5.35,0-10.15-2.33-13.43-6.03
				c-2.84-3.18-4.57-7.38-4.57-11.97c0-9.94,8.06-18,18-18S544,337.06,544,347z"/>
			<path class="st3" d="M543.17,352.4c-2.29,7.3-9.11,12.6-17.17,12.6c-5.35,0-10.15-2.33-13.43-6.03l5.54-6.15l4.56,5.06
				l12.49-14.2L543.17,352.4z"/>
			<circle class="st3" cx="521.5" cy="342.5" r="4.5"/>
		</g>
		<rect x="553" y="329" class="st0" width="144" height="18"/>
		<rect x="553" y="356" class="st0" width="207" height="9"/>
		<g>
			<circle class="st0" cx="1102.5" cy="332.5" r="4.5"/>
			<circle class="st0" cx="1102.5" cy="346.5" r="4.5"/>
			<circle class="st0" cx="1102.5" cy="359.5" r="4.5"/>
		</g>
	</g>
</g>
<g id="Layer_5">
	<g>
		<g>
			<g class="st8">
				<path d="M914.22,858.29l-67.05-67.05c-2.73-2.73-2.73-7.17,0-9.9l67.05-67.05c2.73-2.73,7.17-2.73,9.9,0l0,0
					c2.73,2.73,2.73,7.17,0,9.9l-57.15,57.15c-2.73,2.73-2.73,7.17,0,9.9l57.15,57.15c2.73,2.73,2.73,7.17,0,9.9l0,0
					C921.39,861.02,916.95,861.02,914.22,858.29z"/>
			</g>
			<g class="st8">
				<path d="M951.12,858.29L951.12,858.29c-3.37-1.9-4.56-6.16-2.67-9.53l74.14-131.8c1.9-3.37,6.16-4.56,9.53-2.67h0
					c3.37,1.9,4.56,6.16,2.67,9.53l-74.14,131.8C958.76,858.99,954.49,860.18,951.12,858.29z"/>
			</g>
			<g class="st8">
				<path d="M1059.02,858.43L1059.02,858.43c-2.73-2.74-2.73-7.17,0-9.9l57.15-57.15c2.73-2.73,2.73-7.17,0-9.9l-57.15-57.15
					c-2.73-2.73-2.73-7.17,0-9.9l0,0c2.73-2.73,7.17-2.73,9.9,0l67.05,67.05c2.73,2.73,2.73,7.17,0,9.9l-67.05,67.05
					C1066.19,861.16,1061.76,861.16,1059.02,858.43z"/>
			</g>
		</g>
		<g>
			<g>
				<path class="st5" d="M907.1,851l-67.05-67.05c-2.73-2.73-2.73-7.17,0-9.9L907.1,707c2.73-2.73,7.17-2.73,9.9,0l0,0
					c2.73,2.73,2.73,7.17,0,9.9l-57.15,57.15c-2.73,2.73-2.73,7.17,0,9.9L917,841.1c2.73,2.73,2.73,7.17,0,9.9l0,0
					C914.27,853.73,909.83,853.73,907.1,851z"/>
			</g>
			<g>
				<path class="st5" d="M944,851L944,851c-3.37-1.9-4.56-6.16-2.67-9.53l74.14-131.8c1.9-3.37,6.16-4.56,9.53-2.67l0,0
					c3.37,1.9,4.56,6.16,2.67,9.53l-74.14,131.8C951.64,851.7,947.37,852.9,944,851z"/>
			</g>
			<g>
				<path class="st5" d="M1051.9,851.14L1051.9,851.14c-2.73-2.73-2.73-7.17,0-9.9l57.15-57.15c2.73-2.73,2.73-7.17,0-9.9
					l-57.15-57.15c-2.73-2.73-2.73-7.17,0-9.9l0,0c2.73-2.73,7.17-2.73,9.9,0l67.05,67.05c2.73,2.73,2.73,7.17,0,9.9l-67.05,67.05
					C1059.07,853.88,1054.64,853.88,1051.9,851.14z"/>
			</g>
		</g>
	</g>
</g>
<g id="Layer_2">
	<g>
		<path class="st1" d="M407,445H123c-11.05,0-20-8.95-20-20V123c0-11.05,8.95-20,20-20h284c11.05,0,20,8.95,20,20v302
			C427,436.05,418.05,445,407,445z"/>
		<path class="st5" d="M380.86,157H113.14C97.6,157,85,144.4,85,128.86V105c0-11.05,8.95-20,20-20h284c11.05,0,20,8.95,20,20v23.86
			C409,144.4,396.4,157,380.86,157z"/>
		<path class="st6" d="M389,427H105c-11.05,0-20-8.95-20-20V121h324v286C409,418.05,400.05,427,389,427z"/>
		<g>
			<circle class="st0" cx="130" cy="166" r="27"/>
			<circle class="st3" cx="130" cy="166" r="18"/>
		</g>
		<path class="st3" d="M391,258v130c0,10.51-8.1,19.12-18.4,19.93c-0.53,0.05-1.06,0.07-1.6,0.07H123c-5.69,0-10.81-2.37-14.44-6.18
			c-3.45-3.59-5.56-8.46-5.56-13.82V258c0-11.05,8.95-20,20-20h248C382.05,238,391,246.95,391,258z"/>
		<path class="st3" d="M298.52,157H184c-4.97,0-9-4.03-9-9v0c0-4.97,4.03-9,9-9h114.53c4.97,0,9,4.03,9,9v0
			C307.52,152.97,303.5,157,298.52,157z"/>
		<path class="st3" d="M382.23,193H184c-4.97,0-9-4.03-9-9v0c0-4.97,4.03-9,9-9h198.23c4.97,0,9,4.03,9,9v0
			C391.23,188.97,387.2,193,382.23,193z"/>
		<path class="st0" d="M391,381.2v6.8c0,10.51-8.1,19.12-18.4,19.93c-1.32,0.05-2.61,0.07-3.82,0.07H123
			c-5.69,0-10.81-2.37-14.44-6.18L175,328l29.93,33.26L287,268L391,381.2z"/>
		<circle class="st0" cx="172" cy="286" r="15"/>
		<circle class="st0" cx="106.14" cy="103.14" r="7.14"/>
		<circle class="st0" cx="127.57" cy="103.14" r="7.14"/>
		<circle class="st0" cx="149" cy="103.14" r="7.14"/>
	</g>
</g>
<g id="Layer_6">
	<g>
		<path class="st5" d="M241,649.21c0,0-88-8.79,0-99.86V649.21z"/>
		<path class="st3" d="M241,649.43c0,0,88-8.79,0-99.86V649.43z"/>
		<g>
			<line class="st1" x1="241.5" y1="659.5" x2="241.5" y2="594"/>
			<line class="st1" x1="241.5" y1="642.43" x2="269.5" y2="623.5"/>
			<line class="st1" x1="241.5" y1="632.96" x2="215.5" y2="615.5"/>
		</g>
		<polygon class="st5" points="217.33,657.99 265.47,657.99 255.11,706 228.29,706 		"/>
		<path class="st4" d="M227.13,689.87L227.13,689.87c-0.38,0.09-0.75-0.15-0.84-0.52l-5.81-25.41c-0.09-0.38,0.15-0.75,0.52-0.84
			l0,0c0.38-0.09,0.75,0.15,0.84,0.52l5.81,25.41C227.74,689.41,227.51,689.79,227.13,689.87z"/>
		<path class="st4" d="M230.08,702.77L230.08,702.77c-0.38,0.09-0.75-0.15-0.84-0.52l-1.71-7.48c-0.09-0.38,0.15-0.75,0.52-0.84l0,0
			c0.38-0.09,0.75,0.15,0.84,0.52l1.71,7.48C230.69,702.31,230.46,702.68,230.08,702.77z"/>
	</g>
</g>
<g id="charcter">
</g>
</svg>
